<mxfile host="app.diagrams.net" modified="2023-10-16T13:44:35.275Z" agent="Mozilla/5.0 (Windows NT 10.0; Win64; x64) AppleWebKit/537.36 (KHTML, like Gecko) Chrome/118.0.0.0 Safari/537.36" version="22.0.4" etag="0dE2sHzC3gK9nqQ0upKA" type="github">
  <diagram name="Page-1" id="KxxRQe7MvwTwxmULXc3m">
    <mxGraphModel>
      <root>
        <mxCell id="0" />
        <mxCell id="1" parent="0" />
      </root>
    </mxGraphModel>
  </diagram>
</mxfile>
